<svg xmlns="http://www.w3.org/2000/svg" fill="none" width="166" height="24" viewBox="0 0 166 24"><path d="M62.5254 5.625v1.8139c.5023-1.2093 1.8083-1.9147 3.1143-1.814.4019 0 .8037 0 1.2055.1008.3014.1008.6028.3023.9042.4031L66.7448 8.749c-.201-.2016-.4019-.3024-.7032-.3024-.3014-.1007-.7033-.1007-1.0046-.1007-.7033 0-1.306.2015-1.8083.7054-.5023.6047-.7033 1.4108-.6028 2.217v6.4497H59.813V5.625h2.7124Zm22.7041 11.891c-.7032-.3024-1.4064-.8062-2.0092-1.31-1.8083-1.814-2.3106-4.535-1.306-6.9536.3014-.7054.8037-1.4108 1.306-2.0155.6028-.6047 1.2055-1.0078 2.0092-1.31.8037-.3024 1.6074-.504 2.5115-.504.6028 0 1.306.1008 1.9088.3024.6028.1007 1.1051.403 1.6074.7054.5023.3023 1.0046.7054 1.306 1.2093.4018.504.7032 1.0078.904 1.5116l-2.5114 1.0078c-.3014-.6047-.7032-1.2093-1.306-1.6124s-1.306-.6047-2.0092-.6047c-.5023 0-1.0046.1008-1.4065.3023-.4018.2016-.8037.504-1.105.8063-.3014.3023-.6028.7054-.7033 1.2092-.2009.4031-.3014.907-.3014 1.411s.1005 1.0077.3014 1.4108c.201.4031.402.8062.7033 1.2093.3013.3023.7032.6046 1.105.8062.402.2015.9042.3023 1.4065.3023.7032 0 1.4064-.2016 2.0092-.6047.6028-.403 1.0046-.907 1.2055-1.6124l2.5116 1.1086c-.201.6046-.5023 1.1085-.9042 1.5116-.8037.907-1.8083 1.6124-2.9134 2.0155-.6027.2015-1.306.3023-1.9087.3023-.8037-.1008-1.6074-.3023-2.4111-.6046ZM97.2845 2.4v4.6357c.402-.5038.9042-.907 1.507-1.2093 1.9085-.8062 4.1185-.5038 5.6255.907.904 1.1085 1.306 2.4186 1.306 3.8295v7.155h-2.813v-6.8527c0-.8062-.201-1.6124-.703-2.217-.502-.6047-1.205-.907-2.009-.8063-.4019 0-.7033.1008-1.105.2016-.402.1008-.8038.3023-1.0047.6046-.3014.3024-.5023.6047-.6028 1.0078-.201.403-.201.907-.201 1.4108v6.6512h-2.8128V2.4001h2.8129Zm13.4615 15.116c-.703-.3024-1.306-.7055-1.909-1.2093-.602-.6047-1.105-1.31-1.406-2.0155-.402-.8062-.502-1.7132-.502-2.6202s.201-1.814.502-2.721c.301-.7053.804-1.4108 1.306-2.0154.603-.4031 1.306-.8062 2.009-1.1086.703-.3023 1.407-.403 2.21-.403.804 0 1.507.1007 2.211.5038.602.3023 1.205.7054 1.707 1.2093V5.6245h2.813v12.093h-2.813v-1.6124c-.402.6047-1.004 1.0078-1.707 1.31-.704.3024-1.407.504-2.211.504-.803 0-1.507-.1008-2.21-.4031Zm4.019-2.4186c.402-.2016.803-.504 1.105-.8062.301-.3024.602-.7055.703-1.2093.201-.504.301-1.0078.301-1.5117s-.1-1.0077-.301-1.4108c-.201-.4031-.402-.8062-.703-1.2093-.302-.302-.703-.6041-1.105-.806-.904-.403-2.01-.403-2.914 0-.402.2019-.803.504-1.205.8066-.302.3023-.603.8062-.804 1.2093-.402 1.0077-.402 2.0155 0 3.0232.301.907 1.005 1.6124 1.909 2.0155 1.004.3024 2.009.3024 3.014-.1007Zm9.142-9.4728v1.814c.503-1.2093 1.809-1.9147 3.115-1.814.401 0 .803 0 1.205.1008.301.1008.603.2016.904.403l-1.004 2.6203c-.201-.2016-.402-.3024-.704-.3024-.301-.1007-.703-.1007-1.004-.1007-.703 0-1.306.2015-1.809.7054-.502.6046-.703 1.4108-.602 2.217v6.4497h-2.813V5.6247h2.712Zm17.782-.0001h-2.813V7.136c-.402-.6047-1.005-1.0078-1.708-1.31-.703-.3024-1.406-.504-2.21-.504-.703 0-1.507.2016-2.21.4031-.703.3024-1.306.7055-1.909 1.2093-.603.6047-1.005 1.2094-1.306 2.0155-.301.907-.502 1.814-.502 2.721s.201 1.814.502 2.6201c.301.7055.804 1.4109 1.407 2.0155.602.504 1.205.907 1.908 1.2093.703.3024 1.407.4031 2.11.4031.804 0 1.507-.2015 2.21-.5038.703-.3024 1.306-.8062 1.708-1.411 0 4.4347-1.607 5.039-4.822 5.14v2.5194h2.31c3.014-.1008 5.224-3.3256 5.124-6.0465l.201-11.9922Zm-2.914 7.4573c-.2.4031-.401.8062-.703 1.2093-.301.3024-.703.6047-1.105.8062-.904.4031-2.009.4031-2.913 0-.904-.4031-1.608-1.1085-1.909-2.0155-.402-1.0077-.402-2.0155 0-3.0232.201-.403.502-.8062.804-1.2093.301-.3023.803-.6047 1.205-.8062.904-.4025 2.009-.4025 2.914.0005.401.2017.803.5041 1.105.8064.301.3023.602.7054.703 1.2093.201.403.301.907.301 1.4107 0 .6047-.201 1.1086-.402 1.6124Zm10.65 4.8372c-.905 0-1.809-.2015-2.612-.5038-1.507-.6047-2.713-1.814-3.316-3.3256-.301-.8062-.502-1.6124-.502-2.4186 0-.907.201-1.7132.502-2.5194.302-.7054.804-1.4108 1.306-2.0155.603-.6047 1.206-1.0078 2.01-1.31.803-.3024 1.607-.504 2.511-.504.904 0 1.708.1008 2.512.504.703.3022 1.406.7053 2.009 1.31s1.005 1.2093 1.306 2.0155c.301.8062.502 1.6124.502 2.5194v1.0077h-9.845c.201.8062.703 1.6124 1.306 2.1163.703.5039 1.507.8062 2.411.8062h1.105v2.4186l-1.205-.1008Zm-2.211-9.372c-.602.403-1.105 1.1085-1.306 1.814h6.832c-.201-.7055-.603-1.411-1.206-1.814-.602-.504-1.406-.7055-2.21-.6047-.804-.1008-1.507.1008-2.11.6047Zm-75.6465 8.8682c-1.507-.6047-2.7124-1.814-3.3152-3.3256-.3014-.8062-.5023-1.6124-.5023-2.4186s.201-1.6124.5023-2.4186c.3014-.7054.7032-1.4108 1.306-2.0155.6028-.6047 1.2055-1.0078 2.0092-1.31.8037-.3024 1.6074-.504 2.4111-.504.904 0 1.7078.1008 2.5115.504.7032.2015 1.507.6046 2.0092 1.2092.5023.6047 1.0046 1.2093 1.306 1.9148.3014.8061.4019 1.6123.4019 2.5193v1.0078h-9.7448c.201.8062.6028 1.5116 1.2056 2.0155.7032.5039 1.5069.8062 2.411.8062 1.4065 0 2.7125-.8062 3.3153-2.1163l2.3106 1.3101c-1.105 2.1163-3.3153 3.3256-5.626 3.2248-.904.1008-1.7077-.1008-2.5114-.4031Zm.3014-8.969c-.6028.5039-1.0046 1.1085-1.306 1.814h6.8314c-.201-.7055-.6028-1.4109-1.2056-1.814-.7032-.403-1.4064-.6046-2.21-.6046-.8038 0-1.507.2015-2.1098.6046Zm81.5731 7.3564c.201-.2015.603-.4031.904-.3023.302 0 .603.1008.905.3023.2.3024.301.6047.301.907 0 .6047-.402 1.2093-1.105 1.2093h-.201c-.301 0-.603-.1008-.904-.3023-.302-.6047-.302-1.31.1-1.814Zm5.124-4.1314c0-.4031 0-.7054.101-1.1085.1-.3023.201-.5039.401-.7054.201-.2016.503-.3024.804-.4031.402-.1008.804-.1008 1.206-.1008h.1v1.31c-.201 0-.502 0-.703.1008-.201 0-.301.1008-.402.2016-.1.1008-.1.2015-.201.3023v.5039h1.206v1.2093h-1.206v4.8372h-1.306v-4.8372h-1.004v-1.31h1.004Zm4.822.0002v.907c.301-.6047.904-.907 1.507-.907.201 0 .402 0 .603.1007.201 0 .301.1008.502.2016l-.502 1.31c-.101-.1007-.201-.1007-.302-.2015-.1-.1008-.301-.1008-.502-.1008-.301 0-.603.1008-.904.3024-.201.3023-.302.7054-.302 1.1085v3.2248h-1.406v-6.0465l1.306.1008Z" fill="#0046A4"/><path d="M35.9275 24c-6.614 0-11.9758-5.3726-11.9758-12S29.3135 0 35.9275 0s11.9758 5.3726 11.9758 12-5.3618 12-11.9758 12m-14.9702 0c-6.614 0-11.9758-5.3726-11.9758-12S14.3432 0 20.9573 0v24ZM5.988 22.3904V1.609C2.409 3.6842 0 7.5587 0 12c0 4.4407 2.409 8.3152 5.9879 10.3905" fill="#06F" fill-rule="evenodd" clip-rule="evenodd"/></svg>